<svg xmlns="http://www.w3.org/2000/svg" width="2000" height="2000"><path fill="#8a39ff" d="m1017.25 372.625 3.875.621c9.055 1.48 9.055 1.48 12.875 2.754-2.45 18.72-5.297 37.376-8.15 56.037q-1 6.54-1.994 13.08-2.95 19.359-5.905 38.717-2.311 15.135-4.616 30.271-1.184 7.767-2.371 15.533-.735 4.806-1.465 9.614l-.682 4.461q-.466 3.037-.926 6.076l-.525 3.436c-.431 2.804-.431 2.804-.366 5.775q38.685-6.28 77.345-12.703 8.069-1.34 16.138-2.677l2.328-.386 11.71-1.939q11.991-1.984 23.979-3.983 10.677-1.783 21.358-3.544 5.594-.921 11.184-1.859c4.104-.689 8.21-1.364 12.316-2.038l3.68-.625 3.376-.547 2.921-.485c5.844-.469 9.316 1.624 13.852 5.036l3.743 2.742 1.999 1.48c3.608 2.662 7.247 5.28 10.883 7.903l2.302 1.665A1463 1463 0 0 0 1241.5 558c9.655 6.792 19.212 13.718 28.77 20.646 8.046 5.829 16.104 11.637 24.23 17.354 9.655 6.792 19.212 13.718 28.77 20.646 8.046 5.829 16.104 11.637 24.23 17.354 8.122 5.714 16.175 11.52 24.216 17.346q5.765 4.174 11.534 8.341l2.281 1.649a2940 2940 0 0 0 15.148 10.86c4.727 3.371 9.43 6.774 14.133 10.179 5.196 3.759 10.4 7.504 15.643 11.198q2.104 1.486 4.191 2.997c3.594 2.582 7.195 4.946 11.057 7.11 11.921 6.953 11.921 6.953 14.25 14.36 1.67 7.232 2.09 14.385 2.064 21.788l-.007 2.95L1462 745q-34.042 5.683-68.089 11.343a47594 47594 0 0 0-31.615 5.267q-13.777 2.3-27.557 4.588-7.295 1.211-14.59 2.431-6.867 1.15-13.737 2.285-2.52.419-5.037.842-3.444.578-6.89 1.143l-3.89.648c-3.574.45-6.998.535-10.595.453 9.252 18.647 9.252 18.647 18.846 37.118 4.376 8.256 8.637 16.57 12.904 24.882a10499 10499 0 0 0 21.521 41.668q4.117 7.94 8.224 15.885l2.806 5.424q4.405 8.514 8.798 17.033 2.05 3.976 4.102 7.952l1.945 3.776q1.354 2.628 2.71 5.254l1.645 3.21c1.234 2.303 2.553 4.441 3.987 6.618 3.644 7.664-1.231 17.27-3.695 24.84l-1.31 4.085q-1.401 4.372-2.816 8.74a5919 5919 0 0 0-4.487 13.942q-2.313 7.207-4.63 14.415a9813 9813 0 0 0-13.397 42.01 39038 39038 0 0 1-16.438 51.753l-.668 2.097-2.672 8.391c-9.219 28.941-9.219 28.941-18.376 57.901a2622 2622 0 0 1-5.7 17.907c-3.515 10.928-6.81 21.833-9.615 32.966-8.09 31.221-8.09 31.221-18.996 37.835-5.52 2.984-11.467 5.35-17.688 6.298-3.853-1.284-4.03-2.423-5.828-5.984-.545-1.066-1.09-2.13-1.65-3.228l-1.772-3.538q-.932-1.834-1.867-3.667a2800 2800 0 0 1-3.913-7.703c-2.79-5.505-5.635-10.982-8.477-16.46q-2.357-4.548-4.708-9.1l-1.894-3.663-.946-1.83-7.509-14.517-4.686-9.06-1.875-3.625-3.75-7.25-.937-1.812-6.554-12.668a6471 6471 0 0 1-8.549-16.563c-6.801-13.233-13.658-26.422-20.904-39.42l-1.24-2.223c-.31-.557-.62-1.115-.941-1.689l-2.546 2.763a827 827 0 0 1-24.202 25.06q-3.001 2.983-5.995 5.971-6.344 6.325-12.695 12.643-7.408 7.372-14.808 14.753-2.93 2.92-5.867 5.835c-5.847 5.823-11.573 11.656-16.887 17.975-6.176 7.239-12.441 14.369-18.923 21.336-2.852 3.074-5.649 6.173-8.347 9.384-9.566 11.32-19.693 22.521-35.176 24.108-8.645.598-17.314.126-25.955-.35-9.087-.487-18.131-.523-27.225-.404l-2.216.029q-4.548.057-9.097.122c-8.804.122-17.608.172-26.412.222l-4.991.03c-11.209.067-22.417.121-33.626.171l-15.881.073-13.237.06c-21.741.095-43.476.301-65.213.672-8.78.147-17.56.246-26.34.34-7.428.083-14.853.224-22.28.411-4.544.1-9.087.14-13.632.164q-3.096.032-6.19.143c-9.718.337-17.177.31-24.767-6.325a108 108 0 0 1-6.93-7.417c-1.581-1.79-3.27-3.364-5.034-4.974L682 1222c.433-4.45 3.464-6.858 6.51-9.835l1.74-1.736c1.902-1.895 3.814-3.779 5.727-5.663l3.98-3.961q5.251-5.222 10.517-10.427a9884 9884 0 0 0 16.77-16.644q2.917-2.894 5.84-5.782c5.175-5.126 10.255-10.232 14.976-15.783 5.067-5.666 10.584-10.932 15.967-16.294l4.073-4.069q5.326-5.319 10.658-10.633 5.452-5.438 10.9-10.88Q800.325 1099.643 811 1089c-3.329-2.74-6.938-4.51-10.834-6.285l-2.082-.963q-2.255-1.044-4.513-2.08c-4.191-1.928-8.375-3.873-12.559-5.817l-2.705-1.257c-12.5-5.816-24.927-11.79-37.354-17.76-10.1-4.847-20.22-9.635-30.41-14.292a1093 1093 0 0 1-26.559-12.566c-4.646-2.272-9.303-4.487-14.037-6.572-17.147-7.592-32.15-14.77-39.223-33.08-3.033-8.644-5.189-17.522-7.272-26.433-2.013-8.451-4.816-16.63-7.599-24.853-1.494-4.447-2.93-8.913-4.374-13.377-5.531-17.018-11.216-33.985-16.887-50.957q-2.463-7.374-4.922-14.75-6.209-18.605-12.42-37.208-6.736-20.174-13.467-40.35a33483 33483 0 0 0-7.618-22.812 7609 7609 0 0 1-6.795-20.462A1644 1644 0 0 0 544.618 723c-.986-2.895-1.957-5.795-2.926-8.696q-.67-1.996-1.362-3.985a409 409 0 0 1-1.824-5.412l-1.035-3.04c-1.142-6.948 3.997-14.136 7.029-20.18l1.512-3.072 1.457-2.916 1.326-2.661C550 671 550 671 552 670c1.859.686 1.859.686 4.148 1.84.86.427 1.72.856 2.605 1.297l2.837 1.445 2.949 1.48c3.136 1.576 6.267 3.163 9.399 4.75q3.068 1.544 6.138 3.084c8.141 4.098 16.265 8.22 24.319 12.486 12.02 6.364 24.165 12.462 36.335 18.532l6.645 3.32q8.641 4.318 17.286 8.63l17.72 8.85Q699.688 744.362 717 753q1.176-7.821 2.332-15.645l.39-2.637c2.089-14.14 4.042-28.296 5.936-42.463a5384 5384 0 0 1 5.846-42.348 2252 2252 0 0 0 3.566-26.162 1405 1405 0 0 1 3.199-23.202 495 495 0 0 0 1.646-12.166c3.368-27.613 3.368-27.613 12.874-35.285 3.154-2.15 6.377-4.007 9.772-5.75 4.28-2.355 8.067-5.38 11.939-8.342q2.371-1.755 4.75-3.5l2.375-1.75 7.125-5.25 2.375-1.75 4.748-3.498q5.96-4.389 11.912-8.787c7.771-5.74 15.56-11.45 23.403-17.09a1009 1009 0 0 0 18.774-13.856c4.966-3.74 9.99-7.392 15.038-11.019a932 932 0 0 0 16.938-12.437 2041 2041 0 0 1 36.25-26.688c6.29-4.526 12.518-9.125 18.708-13.788 12.066-9.086 24.259-17.996 36.52-26.815a935 935 0 0 0 17.196-12.728q1.815-1.371 3.656-2.71c1.756-1.293 1.756-1.293 3.241-2.844 5.837-5.38 12.514-3.17 19.741-1.865M902.633 643.168l-2.158 1.436a988 988 0 0 0-4.756 3.225c-4.276 2.91-8.565 5.7-13.035 8.3l-2.597 1.583a113 113 0 0 1-4.98 2.867c-3.57 2.239-5.717 4.148-6.976 8.254l-.584 3.538-.351 2.068A612 612 0 0 0 866 682l-.485 3.106a3414 3414 0 0 0-3.444 22.694 7554 7554 0 0 1-2.617 17.41l-.34 2.253q-2.266 15.033-4.508 30.07a8449 8449 0 0 1-3.065 20.404q-.816 5.38-1.612 10.763c-.588 3.989-1.193 7.975-1.8 11.96l-.52 3.582-.51 3.291c-.14.94-.28 1.881-.426 2.85-1.222 4.751-3.508 7.855-7.454 10.676l-2.272 1.646-2.447 1.732-5.187 3.747-2.68 1.921c-4.07 2.93-8.1 5.913-12.133 8.895l-4.75 3.5-2.375 1.75-7.125 5.25-2.378 1.752-4.72 3.478q-6.164 4.54-12.324 9.086l-2.576 1.9-4.848 3.579A927 927 0 0 1 760 879c2.026 7.381 2.026 7.381 4.116 14.744 1.514 5.244 2.969 10.436 4.017 15.795 1.336 6.287 2.667 12.278 8.133 16.184 3.918 2.284 8.072 3.996 12.25 5.746 6.792 2.985 13.37 6.425 19.988 9.773q3.631 1.828 7.275 3.633c7.736 3.838 15.42 7.744 23.037 11.813 7.466 3.977 15.045 7.698 22.67 11.359 3.856 1.855 7.704 3.727 11.552 5.598 3.3 1.603 6.606 3.193 9.924 4.76a664 664 0 0 1 9.772 4.722c1.808.881 3.633 1.729 5.457 2.575l3.332 1.66 2.922 1.402c3.856 3.375 4.957 7.46 6.555 12.236l.824 2.343a442 442 0 0 1 2.368 7.038l.884 2.66q.938 2.826 1.872 5.653 1.479 4.47 2.963 8.938 3.143 9.465 6.277 18.93a24491 24491 0 0 0 7.307 22.036q1.463 4.41 2.92 8.823l1.781 5.362.82 2.492c.984 3.646.984 3.646 2.984 6.725 1.92.262 3.84.518 5.766.736 2.038.24 4.066.555 6.092.877 13.796 2.12 29.055 3.736 40.964-4.763 9.271-7.37 17.197-16.226 25.047-25.052 3.466-3.851 7.049-7.592 10.621-11.345a994 994 0 0 0 20.162-21.945 618 618 0 0 1 3.536-3.914c3.328-3.698 6.148-7.484 8.849-11.658 8.12-12.185 19.035-25.758 34.048-28.92 18.98-3.207 38.929-1.703 58.05-.64 15.334.842 30.535.389 45.865-.376a673 673 0 0 0 6.848-17.065 270 270 0 0 1 2.347-5.784c5.227-11.486 5.227-11.486 4.699-23.61-1.565-3.468-3.554-6.601-5.702-9.733-1.858-2.817-3.231-5.781-4.684-8.828l-1.7-3.412q-1.674-3.361-3.343-6.726c-3.762-7.546-7.647-15.019-11.586-22.474-4.62-8.75-9.126-17.557-13.629-26.368l-5.23-10.219-1.295-2.528a2702 2702 0 0 0-8.026-15.534l-.988-1.898a3595 3595 0 0 0-4.485-8.587l-1.574-3.015-1.344-2.565L1150 814l-1.913-2.951c-2.458-5.92.923-12.336 2.862-18.045q.68-2.089 1.354-4.18c1.193-3.685 2.415-7.36 3.643-11.035 1.203-3.614 2.383-7.236 3.564-10.857q2.46-7.54 4.935-15.075c2.913-8.87 5.815-17.742 8.645-26.639q.674-2.111 1.36-4.219c.628-1.938 1.244-3.88 1.858-5.823l1.067-3.333c.622-2.831.733-4.2-.375-6.843-1.976-2.047-1.976-2.047-4.562-4l-2.989-2.36q-1.722-1.323-3.449-2.64l-1.974-1.506c-6.048-4.6-6.048-4.6-12.172-9.098C1150 684 1150 684 1148.38 682.494c-2.577-2.259-4.392-3.47-7.893-3.554-7.773.801-15.458 1.913-23.164 3.209l-3.97.655q-4.237.7-8.471 1.407c-4.467.745-8.935 1.481-13.403 2.217q-19.043 3.138-38.084 6.303-10.545 1.752-21.094 3.485-6.66 1.095-13.318 2.211c-3.404.568-6.81 1.125-10.214 1.683l-3.714.63-3.41.552-2.956.49c-4.615.374-7.8-.524-11.483-3.266l-2.131-1.565-2.264-1.701-4.851-3.574-2.497-1.853c-3.82-2.826-7.673-5.606-11.527-8.385l-2.254-1.63a1679 1679 0 0 0-17.28-12.282 1386 1386 0 0 1-15.653-11.213c-12.638-11.268-12.638-11.268-26.117-13.145M1199 1342h40v33h34v31h-34c.068 7.548.138 15.095.236 22.643.044 3.515.084 7.03.11 10.546.032 4.041.086 8.082.142 12.123l.02 3.786c.157 11.18.157 11.18 5.992 20.34 4.985 3.115 9.783 3.165 15.5 2.562 3.778-1.09 7.385-2.46 11-4 3.025 5.815 5.543 11.666 7.813 17.813l.982 2.56c.3.812.602 1.623.912 2.459l.827 2.21C1283 1501 1283 1501 1282 1504c-15.107 8.952-33.147 9.427-50 6-11.631-3.002-19.95-9.33-27-19-1.45-2.937-1.45-2.937-2.687-6l-1.262-3.062c-1.787-4.997-2.174-9.449-2.165-14.748v-2.012c0-2.18.008-4.36.016-6.541l.005-4.553q.006-5.974.024-11.95.014-6.102.02-12.206.016-11.964.049-23.928h-21l-1-19-2.336 4.996-3.039 6.441-1.54 3.3-1.483 3.134-1.365 2.904C1166 1410 1166 1410 1164 1411a115 115 0 0 1-6.312-2.75c-10.6-4.68-20.35-6.504-31.938-6.625l-2.797-.042c-7.105.05-13.503 1.145-19.515 5.104-2.246 3.612-1.907 6.095-1.438 10.313 5.499 7.568 21.968 7.971 30.5 9.5 33.244 5.958 33.244 5.958 44.5 18.5 6.395 9.98 7.83 21.586 5.316 33.145-4.025 11.94-11.783 19.602-22.691 25.48-25.589 12.631-58.264 10.277-84.625 1.375-12.899-4.656-12.899-4.656-17-9q2.468-5.478 4.962-10.944.846-1.86 1.685-3.721c.805-1.788 1.62-3.571 2.435-5.355l1.476-3.253c1.283-2.427 2.376-3.962 4.442-5.727l2.57 1.39c17.113 9.047 39.952 15.673 59.227 9.75 3.946-1.633 5.783-2.51 8.203-6.14.438-3.432.482-5.266-1.437-8.187-7.358-5.205-17.015-5.876-25.688-7.25-38.286-6.37-38.286-6.37-48.344-19.477-6.708-10.102-7.187-22.707-4.879-34.387 3.684-11.177 11.371-18.785 21.348-24.699 13.096-6.342 26.875-8.543 41.313-8.375l3.836.029c17.131.275 33.538 3.353 48.851 11.346v-6h21zM422 1331l45.563-.187 14.299-.083c5.835-.014 5.835-.014 8.581-.016q2.83-.007 5.66-.03c23.832-.185 46.352 3.606 64.584 20.379 12.426 13.16 16.962 29.382 16.786 47.156-.559 16.574-6.356 30.207-17.743 42.265-3.493 3.219-7.19 5.69-11.285 8.079-2.286 1.344-4.357 2.805-6.445 4.437l2.133 3.016a5498 5498 0 0 1 18.622 26.498c2.912 4.17 5.84 8.327 8.8 12.463l1.695 2.375q1.591 2.226 3.195 4.445c3.555 4.98 3.555 4.98 3.555 7.203a760 760 0 0 1-18.732.66q-3.183.09-6.363.245c-17.04.817-17.04.817-21.682-1.974-3.344-3.073-5.241-6.911-7.223-10.931a162 162 0 0 0-3.3-4.73l-1.497-2.22a244 244 0 0 0-3.23-4.647c-2.834-4.016-5.256-7.833-7.172-12.368-2.424-5.189-4.566-9.323-9.801-12.035-11.842-2.867-25.19-1.374-37-1v49h-42zm42 34v61l20.313.188 6.34.082c12.533.096 25.57.15 35.222-9.06 5.999-6.473 8.705-12.717 8.625-21.523l-.02-2.26c-.279-8.468-3.04-14.362-9.105-20.302-8.875-7.127-19.736-8.29-30.71-8.223l-2.365.003c-2.892.006-5.783.02-8.675.033zM747 1320h41v64l11-8c3.742-1.84 3.742-1.84 6.875-2.937l3.18-1.153c16.876-5.215 36.542-2.489 52.32 4.84 14.82 8.004 26.558 20.945 31.984 37.02 6.534 22.228 5.248 45.576-5.922 66.101-9.374 15.646-24.156 25.9-41.812 30.379-17.146 3.201-35.561 2.394-50.562-7.25-3.12-2.146-5.311-4.248-8.063-7l-1 13h-39zm47.688 95.25c-7.026 8.802-8.455 19.841-7.688 30.75 1.694 11.254 6.21 19.328 14.984 26.563 7.753 5.528 16.765 6.208 26.016 5.437 9.595-1.93 17.23-7.354 22.664-15.492 6.207-11.651 6.88-24.007 3.375-36.649-2.993-8.236-8.578-14.926-16.309-19.078-15.344-7.125-31.351-3.955-43.043 8.469M1409 1331h43c9.404 20.745 18.804 41.49 28.032 62.313A6154 6154 0 0 0 1496 1429c10.446 23.179 20.834 46.384 31 69.688l1.26 2.88 1.115 2.569.96 2.21C1531 1508 1531 1508 1531 1509h-45l-15-37-82-1-3 10a198 198 0 0 1-2.918 7.102l-1.454 3.37-1.815 4.153L1374 1509h-43c.698-3.489 1.176-5.737 2.575-8.811l.976-2.165 1.062-2.313 1.107-2.445q1.176-2.595 2.36-5.19a3155 3155 0 0 0 3.731-8.214q2.477-5.469 4.958-10.936a2289 2289 0 0 0 8.106-18.113l1.382-3.117 2.996-6.757q4.976-11.216 9.964-22.427l3.848-8.658a90522 90522 0 0 1 20.002-44.987l3.578-8.043 1.023-2.3c3.479-7.826 6.899-15.677 10.332-23.524m21 42c-11.89 28.28-11.89 28.28-23.625 56.625l-1.088 2.645c-1.581 3.268-1.581 3.268-2.287 6.73h54c-.724-3.622-1.383-6.244-2.762-9.552l-1.094-2.643-1.187-2.828-1.23-2.965q-1.951-4.695-3.915-9.387-2.554-6.136-5.105-12.273l-1.24-2.98A1405 1405 0 0 1 1431 1373zM709.598 1386.066c12.847 11.142 22.458 25.747 24.402 42.934 1.436 20.866-.727 40.392-14.96 56.817-14.453 15.917-32.137 24.05-53.352 26.058-23.45.988-44.984-4.936-62.688-20.875-11.379-10.77-19.35-27.317-20-43l-.156-3.293c-.453-18.194 3.932-34.255 15.156-48.707l1.395-1.895c10.287-13.133 27.742-20.707 43.77-23.695 23.778-2.542 47.205.36 66.433 15.656m-76.973 28.309c-6.867 8.865-9.733 19.457-8.625 30.625 1.747 11.791 5.753 19.952 14.984 27.563 7.741 5.52 16.775 6.229 26.016 5.437 9.26-2.063 17.488-6.877 22.875-14.812 6.07-11.05 7.169-24.547 4-36.75-1.765-4.845-4.42-8.643-7.875-12.438-.565-.63-1.13-1.26-1.71-1.91-6.242-6.202-14.772-9.167-23.54-9.465-10.24 1.024-18.982 3.888-26.125 11.75M909 1372h41l.078 17.55q.037 5.531.082 11.061c.048 5.842.092 11.683.111 17.525.015 4.714.05 9.428.097 14.141q.023 2.688.024 5.374c.01 11.032.167 21.356 6.733 30.786 6.908 6.157 14.403 7.235 23.469 6.95 7.605-.864 14.14-3.753 19.406-9.387 7.21-11.447 7.321-23.22 7.414-36.285q.028-2.503.059-5.006c.05-4.365.09-8.73.128-13.094.047-5.252.109-10.503.168-15.755.088-7.953.158-15.906.231-23.86h41v137h-39l-1-13-3.75 3.125c-7.362 5.715-15.918 10.54-25.25 11.875l-2.781.402c-16.412 1.808-33.685-.602-47.102-10.675-2.573-2.099-4.899-4.255-7.117-6.727l-2.5-2.687c-9.44-11.637-11.68-26.682-11.614-41.208v-2.574c0-2.782.008-5.562.016-8.343l.005-5.818q.006-7.624.024-15.25.016-9.165.023-18.33c.01-9.263.029-18.526.046-27.79"/><path fill="#8939ff" d="M1536 1331h42v178h-42z"/><path fill="#3f3f3f" d="M427 1576c5 1 5 1 6.837 3.3l1.679 3.013 1.851 3.257 1.883 3.43q1.882 3.345 3.766 6.688l1.665 3.011c1.124 2.193 1.124 2.193 2.319 3.301l15-26h5v38h-5l-1-26c-3.783 6.858-3.783 6.858-7.538 13.732l-1.446 2.577-1.46 2.65C449 1609 449 1609 445 1610l-12-20-1 24h-5zM1266 1576h5l15 26 3.5-5.687 1.177-1.898a323 323 0 0 0 5.495-9.173l1.057-1.806c.98-1.678 1.946-3.363 2.912-5.05L1302 1576h4v38h-5l-1-25-12 21c-4-1-4-1-5.556-2.95l-1.46-2.523-1.446-2.453-1.788-3.137L1272 1589l-1 25h-5zM736 1576h5l15 26 3.5-5.687 1.177-1.898a323 323 0 0 0 5.495-9.173l1.057-1.806c.98-1.678 1.946-3.363 2.912-5.05L772 1576h4v38h-5l-1-25-12 21c-4-1-4-1-5.556-2.95l-1.46-2.523-1.446-2.453-1.788-3.137L742 1589l-1 25h-5zM1058 1576c5 1 5 1 6.761 3.225l1.571 2.904 1.729 3.135 1.752 3.299 1.81 3.31A838 838 0 0 1 1076 1600h3l1.114-2.095c1.674-3.124 3.373-6.233 5.073-9.342l1.752-3.3 1.729-3.134 1.571-2.904C1092 1577 1092 1577 1097 1576v38h-4l-1-26-13 22c-4-1-4-1-5.556-3.041-.481-.875-.963-1.75-1.46-2.65l-1.446-2.577-1.788-3.294L1063 1588l-1 26h-4zM844 1576c5.512 1.102 6.92 2.619 10.188 6.75l1.419 1.735c4.929 6.068 9.67 12.286 14.393 18.515l1-27h5v38h-5a51.4 51.4 0 0 1-5.187-6.187l-1.42-1.892a534 534 0 0 1-2.92-3.931c-1.865-2.52-3.779-5-5.7-7.477-1.932-2.498-3.851-5.007-5.773-7.513l-1 27h-5z"/><path fill="#3e3e3e" d="M537 1576c22.919 0 22.919 0 28.375 5.313 2.634 4.356 2.882 7.331 1.938 12.312-1.333 3.426-2.44 5.13-5.313 7.375h-2l1.75 2.59 2.25 3.348 1.156 1.708c2.844 4.24 2.844 4.24 2.844 5.354-2.809.309-2.809.309-6 0-1.66-2.152-1.66-2.152-3.062-4.937-2.23-3.577-3.139-4.85-7.274-5.95-3.253-.215-6.409-.28-9.664-.113v11h-5zm5 5v17l7.188.25 2.235.11c3.585.06 5.463-.288 8.507-2.223 2.415-2.493 2.986-3.685 3.07-7.137-.747-2.852-1.538-4.527-3.598-6.637-3.343-1.897-6.427-1.687-10.152-1.55z"/><path fill="#3f3f3f" d="M1531 1576c22.928 0 22.928 0 28.977 5.941 1.922 3.868 1.528 7.856 1.023 12.059-1.648 3.872-3.658 5.576-7 8l1.75 2.371 2.25 3.066 2.25 3.06C1562 1613 1562 1613 1562 1614c-2.809.309-2.809.309-6 0-1.66-2.152-1.66-2.152-3.062-4.937-2.23-3.577-3.139-4.85-7.274-5.95-3.253-.215-6.409-.28-9.664-.113v11h-5zm5 5v17l6.688.188 3.761.105c3.768-.31 5.579-1.016 8.551-3.293 1.57-3.139 1.352-5.539 1-9-1.963-2.865-1.963-2.865-5-5-2.884-.374-4.983-.487-7.812-.312z"/><path fill="#3e3e3e" d="M613.375 1577.625c4.666 2.693 7.9 6.201 9.625 11.375.684 7.14.974 13.474-3.437 19.414-4.621 4.69-9.85 6.356-16.25 6.899-5.873-.12-11.034-1.987-15.18-6.22-4.39-5.629-5.613-9.892-5.133-17.093 1.207-5.723 3.59-9.1 8.086-12.773 6.694-4.29 15.016-4.914 22.289-1.602m-22.312 8c-2.577 4.217-3.471 7.449-3.063 12.375 1.22 4.523 3.255 7.888 7.188 10.5 4.2 2.015 8.25 2.298 12.812 1.5 3.623-1.308 6.287-3.241 8.938-6.062 1.677-4.638 1.705-9.07 1.062-13.938-2.158-4.477-4.45-6.99-9-9-7.312-1.932-12.42-.306-17.937 4.625M1022.563 1575.938l2.437.062q3.635 7.875 7.263 15.753l2.474 5.363q1.774 3.846 3.544 7.693l1.127 2.436c2.592 5.641 2.592 5.641 2.592 6.755h-6l-4-8h-20l-4 8h-5c2.267-7.502 5.396-14.507 8.726-21.587.91-1.935 1.81-3.873 2.712-5.811 4.941-10.587 4.941-10.587 8.125-10.665M1022 1583a5309 5309 0 0 0-4 7.938l-1.156 2.287-1.094 2.177-1.016 2.016c-.804 1.442-.804 1.442-.734 2.582h16l-7-17z"/><path fill="#3f3f3f" d="M1130 1576h5c4.371 8.482 8.471 17.071 12.438 25.75l1.36 2.96 1.26 2.774 1.135 2.492C1152 1612 1152 1612 1152 1614h-5c-4-6.75-4-6.75-4-9h-21l-3 9h-6c3.54-8.695 7.35-17.24 11.313-25.75l1.666-3.594A6749 6749 0 0 1 1130 1576m2 6a2764 2764 0 0 0-3.5 7.875l-1.012 2.262-.957 2.168-.888 2c-.761 1.704-.761 1.704-.643 3.695h15a149 149 0 0 0-7-18zM489 1576c21.438 0 21.438 0 27.375 5 3.056 3.76 2.942 7.317 2.625 12-1.327 3.631-2.328 5.5-5.437 7.813-4.544 2.105-8.301 2.3-13.313 2.25l-3.547-.028L494 1603v11h-5zm5 5v17l6.688.25 3.761.14c4.144-.455 5.693-1.41 8.551-4.39 1.248-3.405 1.248-3.405 1-7-1.766-2.802-3.03-4.515-6-6-2.374-.071-4.75-.084-7.125-.062zM1493 1576h5c4.544 8.865 8.895 17.798 13 26.875l1.205 2.647c.365.815.73 1.63 1.108 2.47l.988 2.199C1515 1612 1515 1612 1515 1614h-5l-4-8-21-1-1 5c-1.062 2.313-1.062 2.313-2 4h-6c5.492-12.751 11.021-25.468 17-38m2 7a5640 5640 0 0 0-3.5 7.938l-1.012 2.287c-1.719 3.274-1.719 3.274-2.488 6.775h16q-1.676-3.974-3.375-7.937l-.96-2.288c-1.488-4.1-1.488-4.1-4.665-6.775M1428 1576h5v17h23v-17h5v38h-5v-17h-23v17h-5zM1165 1576h30c0 5.622 0 5.622-2.527 8.566l-1.64 1.955-1.77 2.042a2138 2138 0 0 0-3.57 4.253l-1.79 2.126c-3.758 4.543-7.205 9.315-10.703 14.058l23 1v4h-32c1.098-4.392 2.531-6.286 5.313-9.812l1.315-1.679c1.45-1.843 2.91-3.677 4.372-5.509l1.647-2.07c3.438-4.32 6.894-8.626 10.353-12.93l-22-1zM798 1576h26v5h-21v12h19v4h-19v13h22v4h-27zM690 1576h26v5h-21v12h19v4h-19v13h22v4h-27z"/><path fill="#3e3e3e" d="M1213 1576h5l.044 2.292c.075 3.445.171 6.889.268 10.333l.069 3.605c.148 8.382.148 8.382 3.619 15.77 2.34 1.17 3.774 1.134 6.375 1.125l2.336.008c2.222-.13 4.155-.52 6.289-1.133 2.346-6.572 2.436-13.007 2.625-19.937l.117-3.518q.141-4.272.258-8.545h5c.058 4.02.094 8.041.125 12.063.017 1.133.034 2.267.05 3.435.081 13.758.081 13.758-4.487 19.314-4.42 3.597-7.872 4.612-13.633 4.438-4.76-.58-8.115-2.285-11.43-5.687-2.709-4.272-2.746-7.85-2.723-12.86l.01-3.652.025-3.801.014-3.848q.018-4.701.049-9.402"/><path fill="#3f3f3f" d="M1405.625 1577.25c2.42 1.782 3.404 2.934 4.375 5.75l-4 2-1.5-1.437c-3.38-2.113-6.575-2.68-10.5-2.563-5.23 1.569-7.977 3.465-11 8-1.602 3.204-1.351 6.516-1 10 1.306 3.774 2.635 5.662 5.563 8.375 4.572 2.162 8.455 2.368 13.437 1.625a98 98 0 0 0 5-3c2.313.813 2.313.813 4 2-.66 2.396-1.46 3.69-3.633 4.934-6.988 2.863-13.458 3.094-20.476.18-4.228-2.49-6.848-6.313-9.266-10.489-1.612-6.77-1.05-12.483 2.375-18.625 7.071-8.409 16.312-10.306 26.625-6.75"/><path fill="#3e3e3e" d="M636 1576h5c5.046 9.861 9.775 19.757 14 30l1.285-2.754L669 1576h5c-2.44 7.926-5.719 15.386-9.125 22.938l-1.668 3.728c-3.962 8.844-3.962 8.844-5.207 11.334h-6a9128 9128 0 0 1-6.836-15.271q-1.162-2.6-2.328-5.197a3573 3573 0 0 1-3.336-7.462l-1.06-2.355c-2.44-5.487-2.44-5.487-2.44-7.715M958 1576c2.316-.242 2.316-.242 5 0 1.59 1.617 1.59 1.617 2.938 3.875l1.503 2.457c.515.88 1.03 1.76 1.559 2.668l1.715 2.824A646 646 0 0 1 975 1595c2.303-2.732 4.354-5.488 6.184-8.55l1.123-1.866a251 251 0 0 0 2.25-3.852c1.127-1.845 1.127-1.845 3.443-4.732 2.785-.418 2.785-.418 5 0-1.253 3.4-2.682 6.207-4.785 9.152-6.653 9.658-11.243 16.727-10.215 28.848h-5l.03-2.415c-.248-9.343-2.933-15.112-8.092-22.773a2314 2314 0 0 1-3.91-6.042l-1.759-2.638C958 1578 958 1578 958 1576"/><path fill="#3f3f3f" d="M1574 1576h32v5h-13v33h-5v-33h-13zM892 1576h31v5h-13v33h-5v-33h-13zM1328 1576h5v38h-5zM400 1576h5v38h-5z"/></svg>